Coordinates
version=1
nRows=64
nColumns=19
inDegrees=yes

Units are S.I. units (second, meters, Newtons, ...)
Angles are in degrees.

endheader
time	1_Force_X	1_Force_Y	1_Force_Z	1_Moment_X	1_Moment_Y	1_Moment_Z	1_COP_X	1_COP_Y	1_COP_Z	2_Force_X	2_Force_Y	2_Force_Z	2_Moment_X	2_Moment_Y	2_Moment_Z	2_COP_X	2_COP_Y	2_COP_Z
1.6525	22.844	1280.768	87.734	-0.280	0.000	0.405	90.487	1162.719	-0.346	-0.378	0.000	-0.008	0.00000	21.70703	0.00000	0.00000	-9.37543	0.00000
1.6550	22.724	1282.682	88.524	-0.280	0.000	0.405	90.950	1161.002	1.311	-0.378	0.000	-0.009	0.00000	21.57836	0.00000	0.00000	-9.59483	0.00000
1.6575	22.484	1281.826	91.088	-0.280	0.000	0.404	91.201	1158.765	2.265	-0.378	0.000	-0.009	0.00000	21.54175	0.00000	0.00000	-9.79998	0.00000
1.6600	22.943	1280.772	92.804	-0.280	0.000	0.404	91.376	1157.562	2.175	-0.378	0.000	-0.009	0.00000	21.35471	0.00000	0.00000	-9.72007	0.00000
1.6625	23.181	1279.723	94.344	-0.280	0.000	0.404	92.024	1154.985	2.828	-0.378	0.000	-0.009	0.00000	21.25086	0.00000	0.00000	-9.70704	0.00000
1.6650	23.465	1277.627	96.504	-0.280	0.000	0.404	91.837	1151.555	4.307	-0.378	0.000	-0.010	0.00000	21.09863	0.00000	0.00000	-9.76251	0.00000
1.6675	23.432	1274.486	97.385	-0.280	0.000	0.404	92.135	1146.581	5.301	-0.378	0.000	-0.010	0.00000	20.87480	0.00000	0.00000	-9.56663	0.00000
1.6700	23.885	1270.296	98.089	-0.280	0.000	0.404	92.431	1142.113	6.079	-0.379	0.000	-0.011	0.00000	20.68857	0.00000	0.00000	-9.62278	0.00000
1.6725	24.828	1265.756	99.011	-0.280	0.000	0.404	92.690	1137.815	5.985	-0.379	0.000	-0.011	0.00000	20.50820	0.00000	0.00000	-9.55517	0.00000
1.6750	24.311	1260.881	99.543	-0.280	0.000	0.404	92.647	1132.482	5.279	-0.379	0.000	-0.011	0.00000	20.21503	0.00000	0.00000	-9.52236	0.00000
1.6775	24.712	1255.465	99.363	-0.280	0.000	0.404	92.955	1126.980	4.619	-0.379	0.000	-0.011	0.00000	19.96506	0.00000	0.00000	-9.34042	0.00000
1.6800	25.376	1248.315	99.231	-0.280	0.000	0.404	92.652	1121.653	4.173	-0.379	0.000	-0.012	0.00000	19.82587	0.00000	0.00000	-9.19276	0.00000
1.6825	25.604	1240.819	98.922	-0.280	0.000	0.404	92.734	1113.922	4.247	-0.379	0.000	-0.012	0.00000	19.57108	0.00000	0.00000	-9.03485	0.00000
1.6850	26.313	1232.439	98.036	-0.280	0.000	0.404	92.471	1107.565	4.063	-0.379	0.000	-0.012	0.00000	19.25388	0.00000	0.00000	-8.91116	0.00000
1.6875	26.624	1221.801	96.803	-0.280	0.000	0.404	92.731	1098.808	3.964	-0.379	0.000	-0.013	0.00000	18.81955	0.00000	0.00000	-8.52622	0.00000
1.6900	27.195	1211.510	95.391	-0.280	0.000	0.404	93.214	1091.590	3.347	-0.379	0.000	-0.013	0.00000	18.54474	0.00000	0.00000	-8.21985	0.00000
1.6925	28.343	1201.561	94.504	-0.280	0.000	0.403	92.993	1084.553	3.558	-0.379	0.000	-0.013	0.00000	18.30818	0.00000	0.00000	-7.95904	0.00000
1.6950	28.571	1191.107	93.891	-0.280	0.000	0.403	92.905	1077.169	3.373	-0.379	0.000	-0.013	0.00000	18.03318	0.00000	0.00000	-7.67428	0.00000
1.6975	29.226	1179.421	91.950	-0.280	0.000	0.403	92.602	1070.645	2.972	-0.379	0.000	-0.013	0.00000	17.74828	0.00000	0.00000	-7.38862	0.00000
1.7000	29.354	1167.569	89.837	-0.280	0.000	0.403	92.694	1064.457	1.962	-0.379	0.000	-0.013	0.00000	17.40079	0.00000	0.00000	-7.14780	0.00000
1.7025	30.496	1157.789	88.199	-0.280	0.000	0.403	92.693	1057.935	1.998	-0.379	0.000	-0.014	0.00000	17.12009	0.00000	0.00000	-6.82875	0.00000
1.7050	30.801	1145.241	86.041	-0.280	0.000	0.403	92.516	1051.410	1.945	-0.379	0.000	-0.014	0.00000	16.79682	0.00000	0.00000	-6.61644	0.00000
1.7075	31.323	1131.984	83.879	-0.280	0.000	0.403	92.783	1044.541	1.283	-0.379	0.000	-0.014	0.00000	16.44285	0.00000	0.00000	-6.17861	0.00000
1.7100	32.060	1120.115	81.010	-0.281	0.000	0.402	92.523	1037.501	0.836	-0.379	0.000	-0.014	0.00000	16.04227	0.00000	0.00000	-5.88343	0.00000
1.7125	32.888	1108.773	78.582	-0.281	0.000	0.402	91.692	1030.810	1.043	-0.379	0.000	-0.015	0.00000	15.76434	0.00000	0.00000	-5.64301	0.00000
1.7150	33.537	1096.737	75.980	-0.281	0.000	0.402	91.340	1024.629	1.169	-0.379	0.000	-0.015	0.00000	15.48252	0.00000	0.00000	-5.49510	0.00000
1.7175	34.105	1083.666	73.646	-0.281	0.000	0.402	90.338	1017.077	0.851	-0.379	0.000	-0.015	0.00000	15.23314	0.00000	0.00000	-5.24899	0.00000
1.7200	34.754	1073.542	70.820	-0.281	0.000	0.402	89.424	1010.036	0.227	-0.379	0.000	-0.015	0.00000	14.91677	0.00000	0.00000	-5.06117	0.00000
1.7225	35.446	1061.847	67.773	-0.281	0.000	0.402	88.374	1002.652	0.215	-0.379	0.000	-0.015	0.00000	14.52150	0.00000	0.00000	-4.97140	0.00000
1.7250	36.093	1049.986	65.171	-0.281	0.000	0.402	87.636	994.237	-0.541	-0.379	0.000	-0.015	0.00000	14.30375	0.00000	0.00000	-4.68732	0.00000
1.7275	36.295	1037.075	61.687	-0.281	0.000	0.402	87.198	985.312	-0.379	-0.379	0.000	-0.015	0.00000	13.87416	0.00000	0.00000	-4.33831	0.00000
1.7300	37.028	1024.338	58.024	-0.281	0.000	0.402	86.156	978.096	-1.397	-0.379	0.000	-0.015	0.00000	13.53719	0.00000	0.00000	-4.14619	0.00000
1.7325	37.362	1014.050	54.762	-0.281	0.000	0.401	84.854	971.562	-2.848	-0.379	0.000	-0.015	0.00000	13.31725	0.00000	0.00000	-4.08798	0.00000
1.7350	37.828	1002.009	51.322	-0.281	0.000	0.401	84.030	961.942	-3.913	-0.379	0.000	-0.016	0.00000	12.92870	0.00000	0.00000	-3.78154	0.00000
1.7375	38.159	989.281	47.621	-0.281	0.000	0.401	82.990	953.175	-5.454	-0.379	0.000	-0.015	0.00000	12.66674	0.00000	0.00000	-3.61322	0.00000
1.7400	38.446	978.988	43.739	-0.281	0.000	0.401	81.773	944.584	-6.650	-0.379	0.000	-0.016	0.00000	12.39933	0.00000	0.00000	-3.45620	0.00000
1.7425	39.041	967.118	40.121	-0.281	0.000	0.401	80.774	935.648	-7.757	-0.379	0.000	-0.016	0.00000	12.03605	0.00000	0.00000	-3.26523	0.00000
1.7450	39.860	955.247	36.854	-0.282	0.000	0.401	79.646	925.856	-8.866	-0.379	0.000	-0.016	0.00000	11.71243	0.00000	0.00000	-2.95280	0.00000
1.7475	40.190	944.438	33.197	-0.282	0.000	0.401	78.568	918.978	-11.016	-0.379	0.000	-0.016	0.00000	11.56902	0.00000	0.00000	-2.74849	0.00000
1.7500	40.435	932.755	29.714	-0.282	0.000	0.400	77.359	911.412	-13.217	-0.379	0.000	-0.016	0.00000	11.31771	0.00000	0.00000	-2.52630	0.00000
1.7525	41.032	920.898	26.365	-0.282	0.000	0.400	76.367	902.810	-15.505	-0.379	0.000	-0.016	0.00000	11.11692	0.00000	0.00000	-2.38709	0.00000
1.7550	41.891	910.245	22.523	-0.282	0.000	0.400	75.157	894.727	-17.571	-0.379	0.000	-0.016	0.00000	10.86335	0.00000	0.00000	-2.23009	0.00000
1.7575	42.402	898.038	19.659	-0.282	0.000	0.400	74.293	884.411	-19.511	-0.379	0.000	-0.016	0.00000	10.63645	0.00000	0.00000	-1.99968	0.00000
1.7600	43.528	885.124	15.907	-0.282	0.000	0.400	73.433	872.216	-21.409	-0.379	0.000	-0.017	0.00000	10.41257	0.00000	0.00000	-1.38827	0.00000
1.7625	44.259	872.217	13.130	-0.283	0.000	0.400	72.571	862.764	-23.387	-0.378	0.000	-0.017	0.00000	10.23534	0.00000	0.00000	-1.05324	0.00000
1.7650	45.089	858.794	10.838	-0.283	0.000	0.399	71.450	849.532	-25.722	-0.378	0.000	-0.017	0.00000	10.04072	0.00000	0.00000	-0.56628	0.00000
1.7675	45.865	845.886	7.795	-0.283	0.000	0.399	70.328	836.307	-27.706	-0.378	0.000	-0.017	0.00000	9.85546	0.00000	0.00000	0.02519	0.00000
1.7700	46.863	832.970	5.454	-0.283	0.000	0.399	69.335	823.770	-29.468	-0.378	0.000	-0.017	0.00000	9.63564	0.00000	0.00000	0.55761	0.00000
1.7725	47.613	817.291	3.873	-0.283	0.000	0.399	68.384	809.338	-31.407	-0.377	0.000	-0.017	0.00000	9.42951	0.00000	0.00000	1.05117	0.00000
1.7750	48.088	803.687	2.067	-0.283	0.000	0.399	66.956	792.843	-33.918	-0.377	0.000	-0.017	0.00000	9.14899	0.00000	0.00000	1.54954	0.00000
1.7775	48.914	786.948	-0.489	-0.284	0.000	0.399	66.095	775.669	-35.900	-0.376	0.000	-0.017	0.00000	8.88326	0.00000	0.00000	2.28230	0.00000
1.7800	49.921	768.815	-2.249	-0.284	0.000	0.398	65.098	756.439	-37.231	-0.376	0.000	-0.017	0.00000	8.60949	0.00000	0.00000	3.11494	0.00000
1.7825	50.185	750.518	-3.962	-0.284	0.000	0.398	63.355	735.141	-38.657	-0.376	0.000	-0.017	0.00000	8.20717	0.00000	0.00000	3.64546	0.00000
1.7850	50.576	729.606	-5.717	-0.285	0.000	0.398	61.439	712.643	-40.128	-0.375	0.000	-0.017	0.00000	7.86873	0.00000	0.00000	4.25504	0.00000
1.7875	50.485	707.830	-6.983	-0.286	0.000	0.397	59.555	689.973	-40.414	-0.374	0.000	-0.017	0.00000	7.47373	0.00000	0.00000	4.60410	0.00000
1.7900	50.133	683.622	-8.421	-0.286	0.000	0.396	57.669	661.637	-40.533	-0.374	0.000	-0.017	0.00000	7.02251	0.00000	0.00000	5.14544	0.00000
1.7925	50.395	656.793	-9.905	-0.287	0.000	0.396	55.907	632.608	-40.433	-0.373	0.000	-0.017	0.00000	6.61550	0.00000	0.00000	5.44629	0.00000
1.7950	50.175	630.848	-11.121	-0.287	0.000	0.395	53.836	602.553	-39.717	-0.372	0.000	-0.016	0.00000	6.29164	0.00000	0.00000	5.69742	0.00000
1.7975	50.310	598.977	-12.554	-0.288	0.000	0.394	51.456	567.508	-39.319	-0.371	0.000	-0.015	0.00000	5.86110	0.00000	0.00000	5.87257	0.00000
1.8000	50.349	564.673	-14.558	-0.289	0.000	0.393	48.234	527.153	-36.962	-0.370	0.000	-0.015	0.00000	5.52843	0.00000	0.00000	6.08662	0.00000
1.8025	50.002	530.373	-16.031	-0.290	0.000	0.392	44.529	484.886	-35.349	-0.369	0.000	-0.014	0.00000	5.07713	0.00000	0.00000	5.77588	0.00000
1.8050	50.012	495.010	-17.116	-0.291	0.000	0.391	40.419	439.193	-32.211	-0.367	0.000	-0.013	0.00000	4.46732	0.00000	0.00000	5.38202	0.00000
1.8075	52.620	457.175	-19.276	-0.292	0.000	0.390	36.068	390.085	-26.193	-0.365	0.000	-0.011	0.00000	4.01770	0.00000	0.00000	5.01608	0.00000
1.8100	56.332	412.716	-22.099	-0.293	0.000	0.388	33.080	341.810	-21.997	-0.362	0.000	-0.008	0.00000	3.66846	0.00000	0.00000	4.50386	0.00000
